# Blender 4.0.1
# www.blender.org
o io
v -1.683837 1.222732 3.681994
v -1.683837 4.040565 3.681993
v -0.803837 4.040565 3.709666
v -1.683837 4.040565 3.709666
v -0.803837 4.040565 3.681993
v -0.803837 1.222732 3.681994
v -0.803837 1.222732 3.709667
v -1.683837 1.222732 3.709667
v -1.683837 1.222732 3.681994
v -0.803837 1.222732 3.681994
v -1.683837 4.040565 3.681993
v -0.803837 1.222732 3.709667
v -0.803837 4.040565 3.709666
v -1.683837 4.040565 3.709666
v -0.803837 4.040565 3.681993
v -1.683837 1.222732 3.709667
vn -1.0000 -0.0000 -0.0000
vn -0.0000 1.0000 -0.0000
vn -0.0000 -0.0000 1.0000
vn 1.0000 -0.0000 -0.0000
vn -0.0000 -1.0000 -0.0000
vn -0.0000 -0.0000 -1.0000
vt 0.871113 0.940283
vt 0.036336 0.940284
vt 0.871113 0.068554
vt 0.036336 0.068555
s 1
f 12/1/1 13/2/1 5/2/1 6/1/1
f 8/3/1 4/4/1 11/4/1 9/3/1
f 16/3/2 12/1/2 6/1/2 1/3/2
f 3/2/3 4/4/3 8/3/3 7/1/3
f 5/2/3 2/4/3 1/3/3 6/1/3
f 3/2/4 7/1/4 10/1/4 15/2/4
f 13/2/5 14/4/5 2/4/5 5/2/5
f 14/4/4 16/3/4 1/3/4 2/4/4
f 13/2/3 14/4/3 16/3/3 12/1/3
f 15/2/6 10/1/6 9/3/6 11/4/6
f 7/1/5 8/3/5 9/3/5 10/1/5
f 4/4/2 3/2/2 15/2/2 11/4/2
