# Blender 4.0.1
# www.blender.org
o ram.001
v -1.492162 1.174726 0.179926
v -0.955104 1.174726 0.179926
v -1.492162 1.174726 0.233632
v -0.955104 1.174726 0.233632
v -1.492164 3.561949 0.179926
v -0.955106 3.561949 0.179926
v -1.492164 3.561949 0.233632
v -0.955106 3.561949 0.233632
v -1.131866 3.561949 0.233632
v -1.207582 3.561949 0.233632
v -1.131866 3.561949 0.179926
v -1.207582 3.561949 0.179926
v -1.131865 3.533279 0.179926
v -1.145619 3.509458 0.179926
v -1.171075 3.501294 0.179926
v -1.194061 3.511660 0.179926
v -1.207582 3.531490 0.179926
v -1.131866 3.533279 0.233632
v -1.145619 3.509458 0.233632
v -1.171075 3.501294 0.233632
v -1.194061 3.511660 0.233632
v -1.207582 3.531490 0.233632
v -1.277980 3.561949 0.233632
v -1.354778 3.561949 0.233632
v -1.277980 3.561949 0.179926
v -1.354778 3.561949 0.179926
v -1.277980 3.538285 0.179926
v -1.289878 3.510727 0.179926
v -1.316379 3.501533 0.179926
v -1.339094 3.510186 0.179926
v -1.354778 3.537769 0.179926
v -1.277980 3.538285 0.233632
v -1.289878 3.510727 0.233632
v -1.316379 3.501534 0.233632
v -1.339094 3.510187 0.233632
v -1.354778 3.537769 0.233632
v -1.275877 1.174726 0.233632
v -1.353183 1.174726 0.233632
v -1.353183 1.174726 0.179926
v -1.275877 1.174726 0.179926
v -1.353183 1.198722 0.179926
v -1.339099 1.222194 0.179926
v -1.315939 1.231270 0.179926
v -1.289648 1.220316 0.179926
v -1.275877 1.196216 0.179926
v -1.353183 1.198722 0.233632
v -1.339099 1.222194 0.233632
v -1.315939 1.231270 0.233632
v -1.289648 1.220316 0.233632
v -1.275877 1.196216 0.233632
v -1.207169 1.174726 0.179926
v -1.129863 1.174726 0.179926
v -1.129863 1.174726 0.233632
v -1.207169 1.174726 0.233632
v -1.207169 1.199129 0.179926
v -1.195339 1.219620 0.179926
v -1.169612 1.231364 0.179926
v -1.141443 1.220096 0.179926
v -1.129863 1.196310 0.179926
v -1.207169 1.199128 0.233632
v -1.195339 1.219620 0.233632
v -1.169612 1.231364 0.233632
v -1.141443 1.220096 0.233632
v -1.129863 1.196309 0.233632
v -1.492162 1.174726 0.517052
v -0.955104 1.174726 0.517052
v -1.492162 1.174726 0.570758
v -0.955104 1.174726 0.570758
v -1.492164 3.561949 0.517052
v -0.955106 3.561949 0.517052
v -1.492164 3.561949 0.570758
v -0.955106 3.561949 0.570758
v -1.131866 3.561949 0.570758
v -1.207582 3.561949 0.570758
v -1.131866 3.561949 0.517052
v -1.207582 3.561949 0.517052
v -1.131866 3.533279 0.517052
v -1.145619 3.509458 0.517052
v -1.171076 3.501294 0.517052
v -1.194061 3.511660 0.517052
v -1.207582 3.531490 0.517052
v -1.131866 3.533279 0.570758
v -1.145619 3.509459 0.570758
v -1.171076 3.501294 0.570758
v -1.194061 3.511660 0.570758
v -1.207582 3.531490 0.570758
v -1.277980 3.561949 0.570758
v -1.354778 3.561949 0.570758
v -1.277980 3.561949 0.517052
v -1.354778 3.561949 0.517052
v -1.277980 3.538285 0.517052
v -1.289878 3.510727 0.517052
v -1.316379 3.501534 0.517052
v -1.339094 3.510186 0.517052
v -1.354778 3.537769 0.517052
v -1.277980 3.538285 0.570758
v -1.289878 3.510727 0.570758
v -1.316379 3.501534 0.570758
v -1.339094 3.510187 0.570758
v -1.354778 3.537769 0.570758
v -1.275877 1.174726 0.570758
v -1.353183 1.174726 0.570758
v -1.353183 1.174726 0.517052
v -1.275877 1.174726 0.517052
v -1.353183 1.198722 0.517052
v -1.339099 1.222194 0.517052
v -1.315939 1.231270 0.517052
v -1.289648 1.220316 0.517052
v -1.275877 1.196216 0.517052
v -1.353183 1.198722 0.570758
v -1.339099 1.222194 0.570758
v -1.315939 1.231270 0.570758
v -1.289648 1.220316 0.570758
v -1.275877 1.196216 0.570758
v -1.207169 1.174726 0.517052
v -1.129863 1.174726 0.517052
v -1.129863 1.174726 0.570758
v -1.207169 1.174726 0.570758
v -1.207169 1.199128 0.517052
v -1.195339 1.219620 0.517052
v -1.169612 1.231363 0.517052
v -1.141444 1.220096 0.517052
v -1.129863 1.196309 0.517052
v -1.207169 1.199128 0.570758
v -1.195339 1.219619 0.570758
v -1.169612 1.231363 0.570758
v -1.141443 1.220096 0.570758
v -1.129863 1.196309 0.570758
vn -0.0000 -1.0000 -0.0000
vn -0.0000 -0.0000 1.0000
vn -0.0000 1.0000 -0.0000
vn -0.0000 -0.0000 -1.0000
vn -1.0000 -0.0000 -0.0000
vn 1.0000 -0.0000 -0.0000
vn 0.8262 0.5633 -0.0000
vn 0.4111 0.9116 -0.0000
vn -0.3054 0.9522 -0.0000
vn -0.8660 0.5000 -0.0000
vn 0.8693 0.4943 -0.0000
vn 0.3560 0.9345 -0.0000
vn -0.3277 0.9448 -0.0000
vn -0.9181 0.3964 -0.0000
vn 0.8575 -0.5145 -0.0000
vn 0.3649 -0.9311 -0.0000
vn -0.3846 -0.9231 -0.0000
vn -0.8682 -0.4961 -0.0000
vn 0.8660 -0.5000 -0.0000
vn 0.4153 -0.9097 -0.0000
vn -0.3714 -0.9285 -0.0000
vn -0.8991 -0.4377 -0.0000
vn -0.3278 0.9448 -0.0000
vt 0.061023 0.516306
vt 0.059358 0.506988
vt 0.061341 0.504191
vt 0.062242 0.513599
vt 0.976471 0.045712
vt 0.976372 0.143750
vt 0.967288 0.143720
vt 0.958392 0.153081
vt 0.954840 0.179589
vt 0.958959 0.197081
vt 0.968049 0.206263
vt 0.976161 0.206286
vt 0.976119 0.251968
vt 0.966907 0.251941
vt 0.959164 0.259785
vt 0.954715 0.276877
vt 0.959018 0.295570
vt 0.968017 0.303196
vt 0.976165 0.303130
vt 0.976471 0.425717
vt 0.025646 0.426683
vt 0.025336 0.309162
vt 0.036159 0.309074
vt 0.045128 0.299856
vt 0.048161 0.273433
vt 0.044262 0.258140
vt 0.036784 0.249129
vt 0.025285 0.249095
vt 0.025329 0.202290
vt 0.034262 0.202315
vt 0.044673 0.194435
vt 0.048160 0.176825
vt 0.042562 0.150212
vt 0.032131 0.139720
vt 0.022977 0.139689
vt 0.023075 0.042714
vt 0.113869 0.513782
vt 0.113904 0.510775
vt 0.114987 0.512361
vt 0.114659 0.515688
vt 0.975607 0.561749
vt 0.975607 0.660448
vt 0.965990 0.660448
vt 0.955019 0.671716
vt 0.951577 0.688034
vt 0.955234 0.707072
vt 0.966195 0.715620
vt 0.975607 0.715620
vt 0.975607 0.766195
vt 0.963492 0.766195
vt 0.955605 0.775909
vt 0.951482 0.792422
vt 0.954729 0.810710
vt 0.964204 0.820591
vt 0.975607 0.820591
vt 0.975607 0.947577
vt 0.026079 0.947577
vt 0.026079 0.822028
vt 0.034664 0.822028
vt 0.044125 0.813709
vt 0.048607 0.793472
vt 0.043936 0.774990
vt 0.035785 0.766491
vt 0.026079 0.766491
vt 0.026079 0.717130
vt 0.034627 0.717130
vt 0.044213 0.707237
vt 0.048570 0.688350
vt 0.044960 0.671711
vt 0.035624 0.661593
vt 0.026079 0.661593
vt 0.026079 0.561749
vt 0.113211 0.486335
vt 0.060009 0.485594
vt 0.059356 0.483694
vt 0.114390 0.483694
vt 0.115320 0.491174
vt 0.113543 0.493315
vt 0.115893 0.505206
vt 0.113862 0.506491
vt 0.113706 0.499427
vt 0.115902 0.500815
vt 0.058015 0.497806
vt 0.056810 0.499407
vt 0.055827 0.496230
vt 0.057111 0.495835
vt 0.058895 0.491945
vt 0.057730 0.490048
vt 0.114670 0.497897
vt 0.116359 0.499026
vt 0.115157 0.497004
vt 0.116611 0.497584
vt 0.115319 0.496072
vt 0.116734 0.496010
vt 0.115088 0.495211
vt 0.116553 0.494263
vt 0.114558 0.494349
vt 0.116031 0.492619
vt 0.114452 0.510276
vt 0.115392 0.511657
vt 0.114965 0.509795
vt 0.115885 0.510579
vt 0.115101 0.509197
vt 0.116104 0.509586
vt 0.115013 0.508434
vt 0.116231 0.508247
vt 0.114589 0.507499
vt 0.116112 0.506577
vt 0.058806 0.505554
vt 0.060424 0.503381
vt 0.058270 0.503998
vt 0.059654 0.502422
vt 0.057893 0.502659
vt 0.059314 0.501354
vt 0.057566 0.501387
vt 0.059164 0.499852
vt 0.057171 0.500247
vt 0.058562 0.498531
vt 0.055793 0.494954
vt 0.056979 0.495110
vt 0.055948 0.493776
vt 0.057022 0.494442
vt 0.056315 0.492580
vt 0.057385 0.493715
vt 0.056861 0.491417
vt 0.057739 0.492846
vt 0.057394 0.490582
vt 0.058272 0.492343
s 1
f 1/1/1 39/2/1 38/3/1 3/4/1
f 3/5/2 38/6/2 46/7/2 47/8/2 48/9/2 49/10/2 50/11/2 37/12/2 54/13/2 60/14/2 61/15/2 62/16/2 63/17/2 64/18/2 53/19/2 4/20/2 8/21/2 9/22/2 18/23/2 19/24/2 20/25/2 21/26/2 22/27/2 10/28/2 23/29/2 32/30/2 33/31/2 34/32/2 35/33/2 36/34/2 24/35/2 7/36/2
f 7/37/3 24/38/3 26/39/3 5/40/3
f 5/41/4 26/42/4 31/43/4 30/44/4 29/45/4 28/46/4 27/47/4 25/48/4 12/49/4 17/50/4 16/51/4 15/52/4 14/53/4 13/54/4 11/55/4 6/56/4 2/57/4 52/58/4 59/59/4 58/60/4 57/61/4 56/62/4 55/63/4 51/64/4 40/65/4 45/66/4 44/67/4 43/68/4 42/69/4 41/70/4 39/71/4 1/72/4
f 3/4/5 7/37/5 5/40/5 1/1/5
f 8/73/6 4/74/6 2/75/6 6/76/6
f 11/77/3 9/78/3 8/73/3 6/76/3
f 25/79/3 23/80/3 10/81/3 12/82/3
f 37/83/1 40/84/1 51/85/1 54/86/1
f 53/87/1 52/88/1 2/75/1 4/74/1
f 10/81/6 22/89/6 17/90/6 12/82/6
f 17/90/7 22/89/7 21/91/7 16/92/7
f 16/92/8 21/91/8 20/93/8 15/94/8
f 15/94/9 20/93/9 19/95/9 14/96/9
f 14/96/10 19/95/10 18/97/10 13/98/10
f 9/78/5 11/77/5 13/98/5 18/97/5
f 26/39/6 24/38/6 36/99/6 31/100/6
f 31/100/11 36/99/11 35/101/11 30/102/11
f 30/102/12 35/101/12 34/103/12 29/104/12
f 29/104/13 34/103/13 33/105/13 28/106/13
f 28/106/14 33/105/14 32/107/14 27/108/14
f 27/108/5 32/107/5 23/80/5 25/79/5
f 41/109/6 46/110/6 38/3/6 39/2/6
f 42/111/15 47/112/15 46/110/15 41/109/15
f 43/113/16 48/114/16 47/112/16 42/111/16
f 44/115/17 49/116/17 48/114/17 43/113/17
f 45/117/18 50/118/18 49/116/18 44/115/18
f 40/84/5 37/83/5 50/118/5 45/117/5
f 55/119/6 60/120/6 54/86/6 51/85/6
f 56/121/19 61/122/19 60/120/19 55/119/19
f 57/123/20 62/124/20 61/122/20 56/121/20
f 58/125/21 63/126/21 62/124/21 57/123/21
f 59/127/22 64/128/22 63/126/22 58/125/22
f 52/88/5 53/87/5 64/128/5 59/127/5
f 65/1/1 103/2/1 102/3/1 67/4/1
f 67/5/2 102/6/2 110/7/2 111/8/2 112/9/2 113/10/2 114/11/2 101/12/2 118/13/2 124/14/2 125/15/2 126/16/2 127/17/2 128/18/2 117/19/2 68/20/2 72/21/2 73/22/2 82/23/2 83/24/2 84/25/2 85/26/2 86/27/2 74/28/2 87/29/2 96/30/2 97/31/2 98/32/2 99/33/2 100/34/2 88/35/2 71/36/2
f 71/37/3 88/38/3 90/39/3 69/40/3
f 69/41/4 90/42/4 95/43/4 94/44/4 93/45/4 92/46/4 91/47/4 89/48/4 76/49/4 81/50/4 80/51/4 79/52/4 78/53/4 77/54/4 75/55/4 70/56/4 66/57/4 116/58/4 123/59/4 122/60/4 121/61/4 120/62/4 119/63/4 115/64/4 104/65/4 109/66/4 108/67/4 107/68/4 106/69/4 105/70/4 103/71/4 65/72/4
f 67/4/5 71/37/5 69/40/5 65/1/5
f 72/73/6 68/74/6 66/75/6 70/76/6
f 75/77/3 73/78/3 72/73/3 70/76/3
f 89/79/3 87/80/3 74/81/3 76/82/3
f 101/83/1 104/84/1 115/85/1 118/86/1
f 117/87/1 116/88/1 66/75/1 68/74/1
f 74/81/6 86/89/6 81/90/6 76/82/6
f 81/90/7 86/89/7 85/91/7 80/92/7
f 80/92/8 85/91/8 84/93/8 79/94/8
f 79/94/9 84/93/9 83/95/9 78/96/9
f 78/96/10 83/95/10 82/97/10 77/98/10
f 73/78/5 75/77/5 77/98/5 82/97/5
f 90/39/6 88/38/6 100/99/6 95/100/6
f 95/100/11 100/99/11 99/101/11 94/102/11
f 94/102/12 99/101/12 98/103/12 93/104/12
f 93/104/23 98/103/23 97/105/23 92/106/23
f 92/106/14 97/105/14 96/107/14 91/108/14
f 91/108/5 96/107/5 87/80/5 89/79/5
f 105/109/6 110/110/6 102/3/6 103/2/6
f 106/111/15 111/112/15 110/110/15 105/109/15
f 107/113/16 112/114/16 111/112/16 106/111/16
f 108/115/17 113/116/17 112/114/17 107/113/17
f 109/117/18 114/118/18 113/116/18 108/115/18
f 104/84/5 101/83/5 114/118/5 109/117/5
f 119/119/6 124/120/6 118/86/6 115/85/6
f 120/121/19 125/122/19 124/120/19 119/119/19
f 121/123/20 126/124/20 125/122/20 120/121/20
f 122/125/21 127/126/21 126/124/21 121/123/21
f 123/127/22 128/128/22 127/126/22 122/125/22
f 116/88/5 117/87/5 128/128/5 123/127/5
