# Blender 4.0.1
# www.blender.org
o Cylinder
v 0.000000 -0.000000 0.002498
v 0.000001 -0.000000 2.521904
v -0.062452 -0.000000 0.002498
v -0.062451 -0.000000 2.243230
v -0.057698 0.023899 0.002498
v -0.057697 0.023899 2.243230
v -0.044160 0.044160 0.002498
v -0.044159 0.044160 2.243230
v -0.023899 0.057698 0.002498
v -0.023898 0.057698 2.243230
v -0.000000 0.062452 0.002498
v 0.000001 0.062452 2.243230
v 0.023899 0.057698 0.002498
v 0.023900 0.057698 2.243230
v 0.044160 0.044160 0.002498
v 0.044161 0.044160 2.243230
v 0.057698 0.023899 0.002498
v 0.057699 0.023899 2.243230
v 0.062452 0.000000 0.002498
v 0.062453 -0.000000 2.243230
v 0.057698 -0.023899 0.002498
v 0.057699 -0.023899 2.243230
v 0.044160 -0.044160 0.002498
v 0.044161 -0.044160 2.243230
v 0.023899 -0.057698 0.002498
v 0.023900 -0.057698 2.243230
v 0.000000 -0.062452 0.002498
v 0.000001 -0.062452 2.243230
v -0.023899 -0.057698 0.002498
v -0.023898 -0.057698 2.243230
v -0.044160 -0.044160 0.002498
v -0.044159 -0.044160 2.243230
v -0.057698 -0.023899 0.002498
v -0.057697 -0.023899 2.243230
v -0.118506 -0.000000 2.002498
v -0.109485 0.045351 2.002498
v -0.083797 0.083797 2.002498
v -0.045351 0.109486 2.002498
v 0.000000 0.118507 2.002498
v 0.045351 0.109486 2.002498
v 0.083797 0.083797 2.002498
v 0.109487 0.045351 2.002498
v 0.118508 -0.000000 2.002498
v 0.109487 -0.045350 2.002498
v 0.083798 -0.083797 2.002498
v 0.045352 -0.109486 2.002498
v 0.000001 -0.118507 2.002498
v -0.045350 -0.109486 2.002498
v -0.083796 -0.083797 2.002498
v -0.109485 -0.045350 2.002498
vn -0.0000 -0.0000 -1.0000
vn -0.9579 0.1906 0.2147
vn -0.9808 0.1951 -0.0000
vn -0.8121 0.5426 0.2147
vn -0.8315 0.5556 -0.0000
vn -0.5426 0.8121 0.2147
vn -0.5556 0.8315 -0.0000
vn -0.1905 0.9579 0.2147
vn -0.1951 0.9808 -0.0000
vn 0.1905 0.9579 0.2147
vn 0.1951 0.9808 -0.0000
vn 0.5426 0.8121 0.2147
vn 0.5556 0.8315 -0.0000
vn 0.8121 0.5426 0.2147
vn 0.8315 0.5556 -0.0000
vn 0.9579 0.1905 0.2147
vn 0.9808 0.1951 -0.0000
vn 0.9579 -0.1905 0.2147
vn 0.9808 -0.1951 -0.0000
vn 0.8121 -0.5426 0.2147
vn 0.8315 -0.5556 -0.0000
vn 0.5426 -0.8121 0.2147
vn 0.5556 -0.8315 -0.0000
vn 0.1905 -0.9579 0.2147
vn 0.1951 -0.9808 -0.0000
vn -0.1905 -0.9579 0.2147
vn -0.1951 -0.9808 -0.0000
vn -0.5426 -0.8121 0.2147
vn -0.5556 -0.8315 -0.0000
vn -0.8121 -0.5426 0.2147
vn -0.8315 -0.5556 -0.0000
vn -0.9579 -0.1906 0.2147
vn -0.9808 -0.1951 -0.0000
vn -0.9562 -0.1902 0.2226
vn -0.9562 0.1902 0.2226
vn -0.1902 0.9562 0.2226
vn 0.8106 0.5416 0.2226
vn 0.8106 -0.5416 0.2226
vn -0.1902 -0.9562 0.2226
vn -0.5416 0.8106 0.2226
vn 0.5416 0.8106 0.2226
vn 0.9562 -0.1902 0.2226
vn 0.1902 -0.9562 0.2226
vn -0.8106 -0.5416 0.2226
vn -0.8106 0.5416 0.2226
vn 0.1902 0.9562 0.2226
vn 0.9562 0.1902 0.2226
vn 0.5416 -0.8106 0.2226
vn -0.5416 -0.8106 0.2226
vt 0.750000 0.250000
vt 0.750000 0.490000
vt 0.841844 0.471731
vt 0.250000 0.250000
vt 0.341844 0.471731
vt 0.250000 0.490000
vt 1.000000 1.000000
vt 0.937500 0.500000
vt 1.000000 0.500000
vt 0.919706 0.419706
vt 0.419706 0.419706
vt 0.937500 1.000000
vt 0.875000 0.500000
vt 0.971731 0.341844
vt 0.471731 0.341844
vt 0.875000 1.000000
vt 0.812500 0.500000
vt 0.990000 0.250000
vt 0.490000 0.250000
vt 0.812500 1.000000
vt 0.750000 0.500000
vt 0.971731 0.158156
vt 0.471731 0.158156
vt 0.750000 1.000000
vt 0.687500 0.500000
vt 0.919706 0.080294
vt 0.419706 0.080294
vt 0.687500 1.000000
vt 0.625000 0.500000
vt 0.841844 0.028269
vt 0.341844 0.028269
vt 0.625000 1.000000
vt 0.562500 0.500000
vt 0.750000 0.010000
vt 0.250000 0.010000
vt 0.562500 1.000000
vt 0.500000 0.500000
vt 0.658156 0.028269
vt 0.158156 0.028269
vt 0.500000 1.000000
vt 0.437500 0.500000
vt 0.580294 0.080294
vt 0.080294 0.080294
vt 0.437500 1.000000
vt 0.375000 0.500000
vt 0.528269 0.158156
vt 0.028269 0.158156
vt 0.375000 1.000000
vt 0.312500 0.500000
vt 0.510000 0.250000
vt 0.010000 0.250000
vt 0.312500 1.000000
vt 0.250000 0.500000
vt 0.528269 0.341844
vt 0.028269 0.341844
vt 0.250000 1.000000
vt 0.187500 0.500000
vt 0.580294 0.419706
vt 0.080294 0.419706
vt 0.187500 1.000000
vt 0.125000 0.500000
vt 0.658156 0.471731
vt 0.158156 0.471731
vt 0.125000 1.000000
vt 0.062500 0.500000
vt 0.062500 1.000000
vt 0.000000 0.500000
vt 0.000000 1.000000
s 0
f 1/1/1 3/2/1 5/3/1
f 2/4/2 6/5/2 4/6/2
f 4/7/3 5/8/3 3/9/3
f 1/1/1 5/3/1 7/10/1
f 2/4/4 8/11/4 6/5/4
f 6/12/5 7/13/5 5/8/5
f 1/1/1 7/10/1 9/14/1
f 2/4/6 10/15/6 8/11/6
f 8/16/7 9/17/7 7/13/7
f 1/1/1 9/14/1 11/18/1
f 2/4/8 12/19/8 10/15/8
f 10/20/9 11/21/9 9/17/9
f 1/1/1 11/18/1 13/22/1
f 2/4/10 14/23/10 12/19/10
f 12/24/11 13/25/11 11/21/11
f 1/1/1 13/22/1 15/26/1
f 2/4/12 16/27/12 14/23/12
f 14/28/13 15/29/13 13/25/13
f 1/1/1 15/26/1 17/30/1
f 2/4/14 18/31/14 16/27/14
f 16/32/15 17/33/15 15/29/15
f 1/1/1 17/30/1 19/34/1
f 2/4/16 20/35/16 18/31/16
f 18/36/17 19/37/17 17/33/17
f 1/1/1 19/34/1 21/38/1
f 2/4/18 22/39/18 20/35/18
f 20/40/19 21/41/19 19/37/19
f 1/1/1 21/38/1 23/42/1
f 2/4/20 24/43/20 22/39/20
f 22/44/21 23/45/21 21/41/21
f 1/1/1 23/42/1 25/46/1
f 2/4/22 26/47/22 24/43/22
f 24/48/23 25/49/23 23/45/23
f 1/1/1 25/46/1 27/50/1
f 2/4/24 28/51/24 26/47/24
f 26/52/25 27/53/25 25/49/25
f 1/1/1 27/50/1 29/54/1
f 2/4/26 30/55/26 28/51/26
f 28/56/27 29/57/27 27/53/27
f 1/1/1 29/54/1 31/58/1
f 2/4/28 32/59/28 30/55/28
f 30/60/29 31/61/29 29/57/29
f 1/1/1 31/58/1 33/62/1
f 2/4/30 34/63/30 32/59/30
f 32/64/31 33/65/31 31/61/31
f 1/1/1 33/62/1 3/2/1
f 2/4/32 4/6/32 34/63/32
f 34/66/33 3/67/33 33/65/33
f 4/6/34 50/63/34 34/63/34
f 6/5/35 35/6/35 4/6/35
f 39/19/36 10/15/36 12/19/36
f 42/31/37 16/27/37 18/31/37
f 24/43/38 44/39/38 22/39/38
f 30/55/39 47/51/39 28/51/39
f 38/15/40 8/11/40 10/15/40
f 16/27/41 40/23/41 14/23/41
f 44/39/42 20/35/42 22/39/42
f 47/51/43 26/47/43 28/51/43
f 50/63/44 32/59/44 34/63/44
f 8/11/45 36/5/45 6/5/45
f 14/23/46 39/19/46 12/19/46
f 43/35/47 18/31/47 20/35/47
f 46/47/48 24/43/48 26/47/48
f 32/59/49 48/55/49 30/55/49
f 41/27/1 45/43/1 49/59/1
f 4/7/3 6/12/3 5/8/3
f 6/12/5 8/16/5 7/13/5
f 8/16/7 10/20/7 9/17/7
f 10/20/9 12/24/9 11/21/9
f 12/24/11 14/28/11 13/25/11
f 14/28/13 16/32/13 15/29/13
f 16/32/15 18/36/15 17/33/15
f 18/36/17 20/40/17 19/37/17
f 20/40/19 22/44/19 21/41/19
f 22/44/21 24/48/21 23/45/21
f 24/48/23 26/52/23 25/49/23
f 26/52/25 28/56/25 27/53/25
f 28/56/27 30/60/27 29/57/27
f 30/60/29 32/64/29 31/61/29
f 32/64/31 34/66/31 33/65/31
f 34/66/33 4/68/33 3/67/33
f 4/6/34 35/6/34 50/63/34
f 6/5/35 36/5/35 35/6/35
f 39/19/36 38/15/36 10/15/36
f 42/31/37 41/27/37 16/27/37
f 24/43/38 45/43/38 44/39/38
f 30/55/39 48/55/39 47/51/39
f 38/15/40 37/11/40 8/11/40
f 16/27/41 41/27/41 40/23/41
f 44/39/42 43/35/42 20/35/42
f 47/51/43 46/47/43 26/47/43
f 50/63/44 49/59/44 32/59/44
f 8/11/45 37/11/45 36/5/45
f 14/23/46 40/23/46 39/19/46
f 43/35/47 42/31/47 18/31/47
f 46/47/48 45/43/48 24/43/48
f 32/59/49 49/59/49 48/55/49
f 49/59/1 50/63/1 37/11/1
f 50/63/1 35/6/1 37/11/1
f 35/6/1 36/5/1 37/11/1
f 37/11/1 38/15/1 39/19/1
f 39/19/1 40/23/1 37/11/1
f 40/23/1 41/27/1 37/11/1
f 41/27/1 42/31/1 43/35/1
f 43/35/1 44/39/1 41/27/1
f 44/39/1 45/43/1 41/27/1
f 45/43/1 46/47/1 49/59/1
f 46/47/1 47/51/1 49/59/1
f 47/51/1 48/55/1 49/59/1
f 49/59/1 37/11/1 41/27/1
